<svg data-v-423bf9ae="" xmlns="http://www.w3.org/2000/svg" viewBox="0 0 260 90" class="iconLeft"><!----><!----><!----><g data-v-423bf9ae="" id="c11e9d6b-3d57-411c-9f1a-c623deca9a6b" fill="white" transform="matrix(4.877738952636719,0,0,4.877738952636719,82.11898040771484,-20.99237823486328)"><path d="M3.74 9.37L3.74 17.18L2.62 17.18L2.62 9.37L0.24 9.37L0.24 8.43L6.12 8.43L6.12 9.37L3.74 9.37ZM8.23 10.18L8.67 11.33L8.67 11.33Q9.34 10.74 9.78 10.42L9.78 10.42L9.78 10.42Q10.22 10.11 10.56 9.97L10.56 9.97L10.70 11.07L10.70 11.07Q10.22 11.23 9.72 11.49L9.72 11.49L9.72 11.49Q9.21 11.76 8.85 12.04L8.85 12.04L8.85 17.18L7.73 17.18L7.73 10.18L8.23 10.18ZM12.14 17.18L12.14 17.18ZM12.31 10.22L13.43 10.04L13.43 17.18L12.31 17.18L12.31 10.22ZM12.88 8.83L12.88 8.83Q12.45 8.83 12.29 8.69L12.29 8.69L12.29 8.69Q12.14 8.54 12.14 8.12L12.14 8.12L12.14 8.12Q12.14 7.69 12.29 7.53L12.29 7.53L12.29 7.53Q12.45 7.38 12.88 7.38L12.88 7.38L12.88 7.38Q13.30 7.38 13.45 7.53L13.45 7.53L13.45 7.53Q13.59 7.69 13.59 8.12L13.59 8.12L13.59 8.12Q13.59 8.54 13.45 8.69L13.45 8.69L13.45 8.69Q13.31 8.83 12.88 8.83L12.88 8.83ZM18.62 17.30L18.62 17.30Q17.37 17.30 16.77 17.02L16.77 17.02L16.77 17.02Q16.17 16.73 15.95 15.98L15.95 15.98L15.95 15.98Q15.72 15.23 15.72 13.68L15.72 13.68L15.72 13.68Q15.72 12.12 15.95 11.38L15.95 11.38L15.95 11.38Q16.17 10.63 16.77 10.34L16.77 10.34L16.77 10.34Q17.37 10.05 18.62 10.05L18.62 10.05L18.62 10.05Q19.88 10.05 20.48 10.33L20.48 10.33L20.48 10.33Q21.08 10.61 21.31 11.36L21.31 11.36L21.31 11.36Q21.53 12.11 21.53 13.68L21.53 13.68L21.53 13.68Q21.53 15.23 21.31 15.98L21.31 15.98L21.31 15.98Q21.08 16.73 20.48 17.02L20.48 17.02L20.48 17.02Q19.87 17.30 18.62 17.30L18.62 17.30ZM16.87 16.35L19.68 16.35L19.68 16.35Q20.10 16.35 20.24 16.28L20.24 16.28L20.24 16.28Q20.38 16.21 20.38 16.00L20.38 16.00L20.38 11.00L17.57 11.00L17.57 11.00Q17.15 11.00 17.01 11.07L17.01 11.07L17.01 11.07Q16.87 11.14 16.87 11.35L16.87 11.35L16.87 16.35ZM27.01 10.05L27.01 10.05Q28.06 10.05 28.56 10.33L28.56 10.33L28.56 10.33Q29.06 10.61 29.25 11.36L29.25 11.36L29.25 11.36Q29.43 12.11 29.43 13.68L29.43 13.68L29.43 13.68Q29.43 15.26 29.24 16.03L29.24 16.03L29.24 16.03Q29.05 16.80 28.55 17.09L28.55 17.09L28.55 17.09Q28.04 17.39 27.01 17.39L27.01 17.39L27.01 17.39Q26.22 17.39 25.73 17.31L25.73 17.31L25.73 17.31Q25.24 17.23 24.95 17.02L24.95 17.02L24.95 19.53L23.83 19.68L23.83 10.18L24.32 10.18L24.60 10.75L24.60 10.75Q24.86 10.35 25.42 10.20L25.42 10.20L25.42 10.20Q25.97 10.05 27.01 10.05L27.01 10.05ZM28.27 16.09L28.27 11.00L25.61 11.00L25.61 11.00Q25.23 11.00 25.09 11.06L25.09 11.06L25.09 11.06Q24.95 11.12 24.95 11.27L24.95 11.27L24.95 16.44L27.59 16.44L27.59 16.44Q28.00 16.44 28.13 16.37L28.13 16.37L28.13 16.37Q28.27 16.30 28.27 16.09L28.27 16.09ZM31.21 12.00L31.21 12.00Q31.21 10.95 31.82 10.46L31.82 10.46L31.82 10.46Q32.44 9.97 33.75 9.97L33.75 9.97L33.75 9.97Q34.87 9.97 35.94 10.28L35.94 10.28L35.77 11.12L35.77 11.12Q35.41 11.02 34.92 10.95L34.92 10.95L34.92 10.95Q34.44 10.88 34.05 10.88L34.05 10.88L34.05 10.88Q33.18 10.88 32.37 11.00L32.37 11.00L32.37 12.89L32.37 12.89Q34.12 13.15 34.92 13.39L34.92 13.39L34.92 13.39Q35.71 13.64 36.00 14.04L36.00 14.04L36.00 14.04Q36.29 14.45 36.29 15.25L36.29 15.25L36.29 15.25Q36.29 16.04 36.02 16.51L36.02 16.51L36.02 16.51Q35.74 16.97 35.13 17.18L35.13 17.18L35.13 17.18Q34.51 17.39 33.46 17.39L33.46 17.39L33.46 17.39Q32.34 17.39 31.04 17.00L31.04 17.00L31.23 16.06L31.23 16.06Q32.33 16.48 33.54 16.48L33.54 16.48L33.54 16.48Q34.03 16.48 34.36 16.44L34.36 16.44L34.36 16.44Q34.68 16.39 35.13 16.25L35.13 16.25L35.13 14.39L35.13 14.39Q33.22 14.10 32.46 13.87L32.46 13.87L32.46 13.87Q31.70 13.65 31.45 13.26L31.45 13.26L31.45 13.26Q31.21 12.87 31.21 12.00L31.21 12.00Z"></path></g><!----><g data-v-423bf9ae="" id="842aaebe-40b0-4536-a3e2-4641581d55e7" transform="matrix(1.875,0,0,1.875,-12.875,0)" stroke="none" fill="white"><path d="M24 0C9 0 4 15 9 27.5l2.5-2.5 2.5-2.5h20l2.5 2.5 2.5 2.5C44 15 39 0 24 0z"></path><path d="M19 35l2.5-5L24 48l2.5-18 2.5 5c5-5 5-10 5-10H14s0 5 5 10z"></path></g><!----></svg>